<mxfile host="app.diagrams.net" modified="2024-02-17T23:20:26.602Z" agent="Mozilla/5.0 (Windows NT 10.0; Win64; x64) AppleWebKit/537.36 (KHTML, like Gecko) Chrome/121.0.0.0 Safari/537.36" etag="GJpC7a_xS89Uch0vvNMj" version="23.1.5" type="github">
  <diagram name="第 1 页" id="FhuTvzg5vPyfLxmLzkGz">
    <mxGraphModel dx="1050" dy="1734" grid="1" gridSize="10" guides="1" tooltips="1" connect="1" arrows="1" fold="1" page="1" pageScale="1" pageWidth="827" pageHeight="1169" math="0" shadow="0">
      <root>
        <mxCell id="0" />
        <mxCell id="1" parent="0" />
        <mxCell id="8LyThlLT5T5LL-58Ad6G-2" value="" style="whiteSpace=wrap;html=1;" vertex="1" parent="1">
          <mxGeometry x="279" y="40" width="270" height="330" as="geometry" />
        </mxCell>
        <mxCell id="8LyThlLT5T5LL-58Ad6G-3" value="测试装置" style="text;html=1;align=center;verticalAlign=middle;resizable=0;points=[];autosize=1;strokeColor=none;fillColor=none;" vertex="1" parent="1">
          <mxGeometry x="300" y="50" width="70" height="30" as="geometry" />
        </mxCell>
        <mxCell id="8LyThlLT5T5LL-58Ad6G-7" style="edgeStyle=orthogonalEdgeStyle;rounded=0;orthogonalLoop=1;jettySize=auto;html=1;exitX=0.5;exitY=1;exitDx=0;exitDy=0;" edge="1" parent="1" source="8LyThlLT5T5LL-58Ad6G-4" target="8LyThlLT5T5LL-58Ad6G-5">
          <mxGeometry relative="1" as="geometry" />
        </mxCell>
        <mxCell id="8LyThlLT5T5LL-58Ad6G-4" value="UI及API序列获取模块" style="whiteSpace=wrap;html=1;" vertex="1" parent="1">
          <mxGeometry x="339" y="110" width="150" height="60" as="geometry" />
        </mxCell>
        <mxCell id="8LyThlLT5T5LL-58Ad6G-8" value="" style="edgeStyle=orthogonalEdgeStyle;rounded=0;orthogonalLoop=1;jettySize=auto;html=1;" edge="1" parent="1" source="8LyThlLT5T5LL-58Ad6G-5" target="8LyThlLT5T5LL-58Ad6G-6">
          <mxGeometry relative="1" as="geometry" />
        </mxCell>
        <mxCell id="8LyThlLT5T5LL-58Ad6G-5" value="LSTM模块" style="whiteSpace=wrap;html=1;" vertex="1" parent="1">
          <mxGeometry x="340" y="190" width="150" height="60" as="geometry" />
        </mxCell>
        <mxCell id="8LyThlLT5T5LL-58Ad6G-6" value="加密模块" style="whiteSpace=wrap;html=1;" vertex="1" parent="1">
          <mxGeometry x="340" y="270" width="150" height="60" as="geometry" />
        </mxCell>
        <mxCell id="8LyThlLT5T5LL-58Ad6G-10" value="服务器" style="whiteSpace=wrap;html=1;" vertex="1" parent="1">
          <mxGeometry x="600" y="40" width="200" height="330" as="geometry" />
        </mxCell>
        <mxCell id="8LyThlLT5T5LL-58Ad6G-11" style="edgeStyle=orthogonalEdgeStyle;rounded=0;orthogonalLoop=1;jettySize=auto;html=1;" edge="1" parent="1" source="8LyThlLT5T5LL-58Ad6G-6">
          <mxGeometry relative="1" as="geometry">
            <mxPoint x="600" y="300" as="targetPoint" />
          </mxGeometry>
        </mxCell>
        <mxCell id="8LyThlLT5T5LL-58Ad6G-12" style="edgeStyle=orthogonalEdgeStyle;rounded=0;orthogonalLoop=1;jettySize=auto;html=1;entryX=-0.02;entryY=0.304;entryDx=0;entryDy=0;entryPerimeter=0;" edge="1" parent="1" source="8LyThlLT5T5LL-58Ad6G-4" target="8LyThlLT5T5LL-58Ad6G-10">
          <mxGeometry relative="1" as="geometry" />
        </mxCell>
        <mxCell id="8LyThlLT5T5LL-58Ad6G-13" style="edgeStyle=orthogonalEdgeStyle;rounded=0;orthogonalLoop=1;jettySize=auto;html=1;entryX=-0.002;entryY=0.548;entryDx=0;entryDy=0;entryPerimeter=0;" edge="1" parent="1" source="8LyThlLT5T5LL-58Ad6G-5" target="8LyThlLT5T5LL-58Ad6G-10">
          <mxGeometry relative="1" as="geometry" />
        </mxCell>
        <mxCell id="8LyThlLT5T5LL-58Ad6G-14" value="" style="endArrow=none;html=1;rounded=0;" edge="1" parent="1">
          <mxGeometry width="50" height="50" relative="1" as="geometry">
            <mxPoint x="440" y="40" as="sourcePoint" />
            <mxPoint x="500" y="10" as="targetPoint" />
          </mxGeometry>
        </mxCell>
        <mxCell id="8LyThlLT5T5LL-58Ad6G-15" value="101" style="text;html=1;align=center;verticalAlign=middle;resizable=0;points=[];autosize=1;strokeColor=none;fillColor=none;" vertex="1" parent="1">
          <mxGeometry x="500" y="-12" width="40" height="30" as="geometry" />
        </mxCell>
        <mxCell id="8LyThlLT5T5LL-58Ad6G-16" value="" style="endArrow=none;html=1;rounded=0;" edge="1" parent="1">
          <mxGeometry width="50" height="50" relative="1" as="geometry">
            <mxPoint x="450" y="110" as="sourcePoint" />
            <mxPoint x="510" y="80" as="targetPoint" />
          </mxGeometry>
        </mxCell>
        <mxCell id="8LyThlLT5T5LL-58Ad6G-17" value="102" style="text;html=1;align=center;verticalAlign=middle;resizable=0;points=[];autosize=1;strokeColor=none;fillColor=none;" vertex="1" parent="1">
          <mxGeometry x="509" y="60" width="40" height="30" as="geometry" />
        </mxCell>
        <mxCell id="8LyThlLT5T5LL-58Ad6G-18" value="" style="endArrow=none;html=1;rounded=0;" edge="1" parent="1">
          <mxGeometry width="50" height="50" relative="1" as="geometry">
            <mxPoint x="460" y="190" as="sourcePoint" />
            <mxPoint x="520" y="160" as="targetPoint" />
          </mxGeometry>
        </mxCell>
        <mxCell id="8LyThlLT5T5LL-58Ad6G-19" value="103" style="text;html=1;align=center;verticalAlign=middle;resizable=0;points=[];autosize=1;strokeColor=none;fillColor=none;" vertex="1" parent="1">
          <mxGeometry x="509" y="140" width="40" height="30" as="geometry" />
        </mxCell>
        <mxCell id="8LyThlLT5T5LL-58Ad6G-20" value="" style="endArrow=none;html=1;rounded=0;" edge="1" parent="1">
          <mxGeometry width="50" height="50" relative="1" as="geometry">
            <mxPoint x="460" y="270" as="sourcePoint" />
            <mxPoint x="520" y="240" as="targetPoint" />
          </mxGeometry>
        </mxCell>
        <mxCell id="8LyThlLT5T5LL-58Ad6G-21" value="104" style="text;html=1;align=center;verticalAlign=middle;resizable=0;points=[];autosize=1;strokeColor=none;fillColor=none;" vertex="1" parent="1">
          <mxGeometry x="509" y="220" width="40" height="30" as="geometry" />
        </mxCell>
        <mxCell id="8LyThlLT5T5LL-58Ad6G-22" value="" style="endArrow=none;html=1;rounded=0;" edge="1" parent="1">
          <mxGeometry width="50" height="50" relative="1" as="geometry">
            <mxPoint x="700" y="40" as="sourcePoint" />
            <mxPoint x="760" y="10" as="targetPoint" />
          </mxGeometry>
        </mxCell>
        <mxCell id="8LyThlLT5T5LL-58Ad6G-23" value="105" style="text;html=1;align=center;verticalAlign=middle;resizable=0;points=[];autosize=1;strokeColor=none;fillColor=none;" vertex="1" parent="1">
          <mxGeometry x="765" y="-12" width="40" height="30" as="geometry" />
        </mxCell>
      </root>
    </mxGraphModel>
  </diagram>
</mxfile>
